<?xml version="1.0" encoding="iso-8859-1"?>
<!-- Generator: Adobe Illustrator 19.0.0, SVG Export Plug-In . SVG Version: 6.00 Build 0)  -->
<svg version="1.1" id="Capa_1" xmlns="http://www.w3.org/2000/svg" xmlns:xlink="http://www.w3.org/1999/xlink" x="0px" y="0px"
	 viewBox="0 0 512 512" style="enable-background:new 0 0 512 512;" xml:space="preserve">
<path style="fill:#FEE377;" d="M460.62,236H158v42.987c2.931,1.739,5.778,3.841,8.5,6.323c18.17,16.57,41.83,16.57,60,0
	s41.83-16.57,60,0c18.17,16.57,41.83,16.57,60,0c18.17-16.57,41.83-16.57,60,0c16.7,15.23,38.04,16.46,55.5,3.69v-53v-0.06
	C461.54,235.98,461.08,236,460.62,236z"/>
<path style="fill:#48BD80;" d="M406.5,285.31c-18.17-16.57-41.83-16.57-60,0c-18.17,16.57-41.83,16.57-60,0
	c-18.17-16.57-41.83-16.57-60,0s-41.83,16.57-60,0c-2.722-2.482-5.569-4.585-8.5-6.323V336h304v-47
	C444.54,301.77,423.2,300.54,406.5,285.31z"/>
<path style="fill:#F25A78;" d="M502,356c0-11.05-8.95-20-20-20c-11.084,0-211.638,0-342,0c-11.04,0-20,8.96-20,20
	c0,11.05,8.95,20,20,20c129.736,0,329.238,0,342,0C493.04,376,502,367.04,502,356z"/>
<g>
	<path style="fill:#FE9A3D;" d="M480.61,213.54c-10.496-84.361-79.384-150.596-164.943-157.021
		c-85.559,6.425-154.447,72.659-164.943,157.021c-1.43,11.45,7.27,21.64,18.61,22.4c0.46,0.04,0.92,0.06,1.38,0.06H460.62
		c0.46,0,0.92-0.02,1.38-0.06C473.34,235.18,482.04,224.99,480.61,213.54z"/>
	<path style="fill:#FE9A3D;" d="M477.79,401.69c4.28-12.65-5.88-25.69-19.25-25.69H170.811c-13.37,0-23.53,13.04-19.25,25.69
		c10.71,31.58,40.59,54.31,75.79,54.31H402C437.2,456,467.08,433.27,477.79,401.69z"/>
</g>
<path d="M363.071,183.071l20-20c3.905-3.905,3.905-10.237,0-14.143c-3.905-3.904-10.237-3.904-14.143,0l-20,20
	c-3.905,3.905-3.905,10.237,0,14.143C352.835,186.977,359.166,186.976,363.071,183.071z"/>
<path d="M123.071,183.071l20-20c3.905-3.905,3.905-10.237,0-14.143c-3.905-3.904-10.237-3.904-14.143,0l-20,20
	c-3.905,3.905-3.905,10.237,0,14.143C112.835,186.977,119.166,186.976,123.071,183.071z"/>
<path d="M313.071,143.071l20-20c3.905-3.905,3.905-10.237,0-14.143c-3.905-3.904-10.237-3.904-14.143,0l-20,20
	c-3.905,3.905-3.905,10.237,0,14.143C302.835,146.977,309.166,146.976,313.071,143.071z"/>
<path d="M193.071,143.071l20-20c3.905-3.905,3.905-10.237,0-14.143c-3.905-3.904-10.237-3.904-14.143,0l-20,20
	c-3.905,3.905-3.905,10.237,0,14.143C182.835,146.977,189.166,146.976,193.071,143.071z"/>
<path d="M243.071,183.071l20-20c3.905-3.905,3.905-10.237,0-14.143c-3.905-3.904-10.237-3.904-14.143,0l-20,20
	c-3.905,3.905-3.905,10.237,0,14.143C232.835,186.977,239.166,186.976,243.071,183.071z"/>
<path d="M482,326h-10v-32.23c0.412-0.358,0.832-0.701,1.237-1.07c6.491-5.917,20.049-9.7,28.889-9.812
	c5.522-0.069,9.943-4.603,9.873-10.125c-0.069-5.479-4.532-9.874-9.997-9.874c-0.042,0-0.086,0-0.128,0.001
	c-8.581,0.108-19.982,2.386-29.874,7.063V243.74c12.176-4.983,20.271-17.519,18.533-31.435C478.737,117.496,397.686,46,302,46h-92
	c-95.686,0-176.737,71.496-188.533,166.301c-1.733,13.875,6.307,26.437,18.533,31.44v25.771c-9.929-4.498-21.357-6.748-30.131-6.622
	c-5.522,0.072-9.94,4.608-9.868,10.131c0.072,5.478,4.535,9.868,9.997,9.868c0.044,0,0.089,0,0.134-0.001
	c8.942-0.137,22.822,3.599,29.592,9.774c0.09,0.083,0.186,0.161,0.277,0.243V326H30c-16.574,0-30,13.424-30,30
	c0,14.865,10.87,27.233,25.078,29.589c-2.337,6.169-2.505,12.909-0.338,19.313C37.134,441.446,71.397,466,110,466h292
	c38.603,0,72.866-24.554,85.263-61.104c2.165-6.398,1.997-13.135-0.339-19.303C500.864,383.301,512,371.17,512,356
	C512,339.458,498.542,326,482,326z M60,246h392v37.555c-12.759,7.099-26.953,5.134-38.762-5.635
	c-21.975-20.039-51.502-20.039-73.477,0c-14.349,13.084-32.175,13.084-46.523,0c-21.975-20.039-51.502-20.039-73.477,0
	c-14.349,13.084-32.175,13.084-46.523,0c-21.975-20.038-51.502-20.04-73.479,0.002C87.598,289.02,73.029,290.781,60,282.975V246z
	 M41.313,214.774C51.867,129.959,124.386,66,210,66h92c85.614,0,158.133,63.959,168.687,148.779
	c0.722,5.779-3.787,10.811-9.356,11.184c-0.066,0.004-0.132,0.01-0.198,0.016c-0.171,0.015-0.342,0.021-0.513,0.021H51.38
	C45.49,226,40.56,220.814,41.313,214.774z M60,304.943c5.407,1.871,10.956,2.807,16.5,2.806c12.905,0,25.776-5.048,36.739-15.051
	c14.348-13.084,32.175-13.084,46.523,0c21.975,20.041,51.503,20.04,73.477,0c14.349-13.084,32.176-13.084,46.523,0
	c21.975,20.041,51.503,20.04,73.477,0c14.348-13.085,32.175-13.083,46.523,0c15.297,13.952,34.503,18.24,52.238,12.545V326H60
	V304.943z M468.32,398.479C458.68,426.902,432.028,446,402,446H110c-30.028,0-56.68-19.098-66.317-47.515
	C41.608,392.355,46.901,386,53.46,386h405.08C465.123,386,470.382,392.385,468.32,398.479z M482,366H30c-5.514,0-10-4.486-10-10
	c0-5.521,4.479-10,10-10h452c5.514,0,10,4.486,10,10C492,361.521,487.521,366,482,366z"/>
<g>
</g>
<g>
</g>
<g>
</g>
<g>
</g>
<g>
</g>
<g>
</g>
<g>
</g>
<g>
</g>
<g>
</g>
<g>
</g>
<g>
</g>
<g>
</g>
<g>
</g>
<g>
</g>
<g>
</g>
</svg>
